<svg width="25" height="25" viewBox="0 0 25 25" fill="none" xmlns="http://www.w3.org/2000/svg">
<path d="M12.5 17.1875V7.8125" stroke="#0C2D48" stroke-width="2" stroke-linecap="round" stroke-linejoin="round"/>
<path d="M8.59375 14.0625C9.36633 14.0625 10.1216 14.2916 10.7639 14.7208C11.4063 15.15 11.907 15.7601 12.2027 16.4739C12.4983 17.1877 12.5757 17.9731 12.4249 18.7308C12.2742 19.4886 11.9022 20.1846 11.3559 20.7309C10.8096 21.2772 10.1136 21.6492 9.35582 21.7999C8.59808 21.9507 7.81267 21.8733 7.09889 21.5777C6.38512 21.282 5.77505 20.7813 5.34582 20.1389C4.9166 19.4966 4.6875 18.7413 4.6875 17.9688V17.3145" stroke="#0C2D48" stroke-width="2" stroke-linecap="round" stroke-linejoin="round"/>
<path d="M16.4063 14.0625C15.6337 14.0625 14.8784 14.2916 14.2361 14.7208C13.5937 15.15 13.093 15.7601 12.7973 16.4739C12.5017 17.1877 12.4243 17.9731 12.5751 18.7308C12.7258 19.4886 13.0978 20.1846 13.6441 20.7309C14.1904 21.2772 14.8864 21.6492 15.6442 21.7999C16.4019 21.9507 17.1873 21.8733 17.9011 21.5777C18.6149 21.282 19.225 20.7813 19.6542 20.1389C20.0834 19.4966 20.3125 18.7413 20.3125 17.9688V17.3145" stroke="#0C2D48" stroke-width="2" stroke-linecap="round" stroke-linejoin="round"/>
<path d="M7.03125 17.5781H6.25C5.14202 17.5811 4.0688 17.1915 3.22074 16.4784C2.37269 15.7654 1.80464 14.775 1.61736 13.6829C1.43009 12.5909 1.6357 11.4678 2.19772 10.5129C2.75974 9.55807 3.64183 8.83315 4.6875 8.4668V7.03125C4.6875 5.99525 5.09905 5.00168 5.83162 4.26911C6.56418 3.53655 7.55775 3.125 8.59375 3.125C9.62975 3.125 10.6233 3.53655 11.3559 4.26911C12.0885 5.00168 12.5 5.99525 12.5 7.03125V17.9688" stroke="#0C2D48" stroke-width="2" stroke-linecap="round" stroke-linejoin="round"/>
<path d="M17.9688 17.5781H18.75C19.858 17.5811 20.9312 17.1915 21.7793 16.4784C22.6273 15.7654 23.1954 14.775 23.3826 13.6829C23.5699 12.5909 23.3643 11.4678 22.8023 10.5129C22.2403 9.55807 21.3582 8.83315 20.3125 8.4668V7.03125C20.3125 5.99525 19.9009 5.00168 19.1684 4.26911C18.4358 3.53655 17.4423 3.125 16.4062 3.125C15.3702 3.125 14.3767 3.53655 13.6441 4.26911C12.9116 5.00168 12.5 5.99525 12.5 7.03125" stroke="#0C2D48" stroke-width="2" stroke-linecap="round" stroke-linejoin="round"/>
<path d="M8.59375 8.20312V8.98438C8.59375 9.70958 8.30566 10.4051 7.79287 10.9179C7.28008 11.4307 6.58458 11.7187 5.85938 11.7188" stroke="#0C2D48" stroke-width="2" stroke-linecap="round" stroke-linejoin="round"/>
<path d="M16.4062 8.20312V8.98438C16.4062 9.70958 16.6943 10.4051 17.2071 10.9179C17.7199 11.4307 18.4154 11.7187 19.1406 11.7188" stroke="#0C2D48" stroke-width="2" stroke-linecap="round" stroke-linejoin="round"/>
</svg>
